<svg width="1440" height="576" viewBox="0 0 1440 576" fill="none" xmlns="http://www.w3.org/2000/svg">
<path fill-rule="evenodd" clip-rule="evenodd" d="M1123.85 295.024H1440.09L1125.47 1.34599L1123.85 2.85303V295.024Z" fill="url(#paint0_linear_1295_2370)"/>
<path fill-rule="evenodd" clip-rule="evenodd" d="M308.238 0.954427L-7.99989 1.73789L307.467 294.635L309.077 293.124L308.238 0.954427Z" fill="url(#paint1_linear_1295_2370)"/>
<path fill-rule="evenodd" clip-rule="evenodd" d="M730.313 295.024H1046.55L731.928 1.34599L730.313 2.85303V295.024Z" fill="url(#paint2_linear_1295_2370)"/>
<path fill-rule="evenodd" clip-rule="evenodd" d="M336.771 295.024H653.009L338.385 1.34599L336.771 2.85308V295.024Z" fill="url(#paint3_linear_1295_2370)"/>
<path fill-rule="evenodd" clip-rule="evenodd" d="M1094.48 0.181023L778.251 2.51903L1095.38 293.861L1096.99 292.342L1094.48 0.181023Z" fill="url(#paint4_linear_1295_2370)"/>
<path fill-rule="evenodd" clip-rule="evenodd" d="M698.679 1.34493L382.45 3.68294L699.582 295.025L701.183 293.506L698.679 1.34493Z" fill="url(#paint5_linear_1295_2370)"/>
<path fill-rule="evenodd" clip-rule="evenodd" d="M636.855 423.179H953.094L638.469 129.501L636.855 131.008V423.179Z" fill="#D9D9D9"/>
<path fill-rule="evenodd" clip-rule="evenodd" d="M243.313 423.179H559.552L244.927 129.501L243.313 131.008V423.179Z" fill="#D9D9D9"/>
<path fill-rule="evenodd" clip-rule="evenodd" d="M-150.23 423.179H166.009L-148.615 129.501L-150.23 131.008V423.179Z" fill="#D9D9D9"/>
<path fill-rule="evenodd" clip-rule="evenodd" d="M607.481 128.336L291.251 130.674L608.383 422.016L609.985 420.497L607.481 128.336Z" fill="#D9D9D9"/>
<path fill-rule="evenodd" clip-rule="evenodd" d="M211.678 129.5L-104.55 131.838L212.582 423.18L214.183 421.661L211.678 129.5Z" fill="#D9D9D9"/>
<path fill-rule="evenodd" clip-rule="evenodd" d="M1093.39 312.894L813.718 313.587L1092.71 572.618L1094.13 571.281L1093.39 312.894Z" fill="#D9D9D9"/>
<path fill-rule="evenodd" clip-rule="evenodd" d="M1118.62 572.961H1398.3L1120.05 313.24L1118.62 314.573V572.961Z" fill="#D9D9D9"/>
<path fill-rule="evenodd" clip-rule="evenodd" d="M1438.69 313.239L1159.02 315.307L1439.49 572.963L1440.9 571.62L1438.69 313.239Z" fill="#D9D9D9"/>
<defs>
<linearGradient id="paint0_linear_1295_2370" x1="1281.97" y1="1.34601" x2="1426.83" y2="31.1194" gradientUnits="userSpaceOnUse">
<stop stop-color="#D9D9D9"/>
<stop offset="1" stop-color="#D9D9D9" stop-opacity="0"/>
</linearGradient>
<linearGradient id="paint1_linear_1295_2370" x1="150.933" y1="295.053" x2="5.96599" y2="265.661" gradientUnits="userSpaceOnUse">
<stop stop-color="#D9D9D9"/>
<stop offset="1" stop-color="#D9D9D9" stop-opacity="0"/>
</linearGradient>
<linearGradient id="paint2_linear_1295_2370" x1="888.432" y1="1.34601" x2="1033.29" y2="31.1194" gradientUnits="userSpaceOnUse">
<stop stop-color="#D9D9D9"/>
<stop offset="1" stop-color="#D9D9D9" stop-opacity="0"/>
</linearGradient>
<linearGradient id="paint3_linear_1295_2370" x1="494.89" y1="1.34601" x2="639.75" y2="31.1194" gradientUnits="userSpaceOnUse">
<stop stop-color="#D9D9D9"/>
<stop offset="1" stop-color="#D9D9D9" stop-opacity="0"/>
</linearGradient>
<linearGradient id="paint4_linear_1295_2370" x1="938.794" y1="295.108" x2="793.619" y2="266.474" gradientUnits="userSpaceOnUse">
<stop stop-color="#D9D9D9"/>
<stop offset="1" stop-color="#D9D9D9" stop-opacity="0"/>
</linearGradient>
<linearGradient id="paint5_linear_1295_2370" x1="542.992" y1="296.272" x2="397.818" y2="267.638" gradientUnits="userSpaceOnUse">
<stop stop-color="#D9D9D9"/>
<stop offset="1" stop-color="#D9D9D9" stop-opacity="0"/>
</linearGradient>
</defs>
</svg>
