<svg width="1440" height="392" viewBox="0 0 1440 392" fill="none" xmlns="http://www.w3.org/2000/svg">
<path fill-rule="evenodd" clip-rule="evenodd" d="M1127.03 1.16498L1440 292.889V294.843H1125.42V2.67203L1127.03 1.16498ZM1160.63 315.126L1440 313.063V392H1244.43L1160.63 315.126ZM1206.3 392L1121.61 313.059L1120.18 314.392V392H1206.3ZM1095.14 392L1094.91 312.713L836.789 313.352L816.933 294.843H1048.01L732.945 1.16498L731.329 2.67203V215.049L701.246 187.008L699.65 1.16391L382.982 3.50194L519.572 128.81L476.139 129.131L338.856 1.16498L337.239 2.67209V130.156L309.039 130.364L308.667 0.773427L0 1.53707V8.98443L130.436 129.921L0 130.884V227.705L179.087 392H214.228L212.632 206.13L243.651 234.89V392H527.076L422.844 294.843H470.803L576.708 392H610.591L609.757 294.843H637.74V392H1095.14ZM132.986 392L0 268.04V392H132.986ZM779.334 2.33801L1096 0L1098.51 292.161L1096.91 293.68L779.334 2.33801ZM309.086 146.483L309.208 188.92L337.239 215.048V172.31L309.086 146.483ZM609.4 253.347L637.74 279.763V237.218L609.036 210.884L609.4 253.347Z" fill="#E7E7E7"/>
</svg>
